<svg xmlns="http://www.w3.org/2000/svg" viewBox="0 0 15 12.857">
  <defs>
    <style>
      .cls-1 {
        fill: #d1d1d1;
      }
    </style>
  </defs>
  <path id="menu" class="cls-1" d="M64.8,129.607H78.2a.8.8,0,1,0,0-1.607H64.8a.8.8,0,1,0,0,1.607Zm0,5.625h8.036a.8.8,0,1,0,0-1.607H64.8a.8.8,0,1,0,0,1.607Zm11.2-3.422a.133.133,0,0,0-.089-.033.134.134,0,0,0-.134.134v5.027a.136.136,0,0,0,.033.089.135.135,0,0,0,.189.013l2.764-2.411a.353.353,0,0,0,.025-.025.269.269,0,0,0-.025-.378Zm2.188,7.44H64.8a.8.8,0,1,0,0,1.607H78.2a.8.8,0,1,0,0-1.607Z" transform="translate(79 140.857) rotate(180)"/>
</svg>
