<svg xmlns="http://www.w3.org/2000/svg" viewBox="0 0 29.391 29.391">
  <defs>
    <style>
      .cls-1 {
        fill: #9e9e9e;
      }
    </style>
  </defs>
  <path id="user-pic" class="cls-1" d="M19.7,6.959A12.736,12.736,0,1,1,6.959,19.7,12.752,12.752,0,0,1,19.7,6.959M19.7,5a14.7,14.7,0,1,0,14.7,14.7A14.676,14.676,0,0,0,19.7,5Zm3.1,14.957A4.73,4.73,0,1,0,14.96,16.4a4.6,4.6,0,0,0,1.633,3.56,7.207,7.207,0,0,0-4.082,6.5H14.47a5.225,5.225,0,0,1,10.45,0H26.88A7.207,7.207,0,0,0,22.8,19.957Zm-3.1-6.335A2.776,2.776,0,1,1,16.92,16.4,2.773,2.773,0,0,1,19.7,13.621Z" transform="translate(-5 -5)"/>
</svg>
